<svg width="279" height="279" viewBox="0 0 279 279" fill="none" xmlns="http://www.w3.org/2000/svg">
<g filter="url(#filter0_d)">
<path d="M139.5 35C81.8752 35 35 81.8752 35 139.5C35 197.125 81.8752 244 139.5 244C197.125 244 244 197.117 244 139.5C244 81.8834 197.125 35 139.5 35ZM139.5 227.811C90.8116 227.811 51.1889 188.197 51.1889 139.5C51.1889 90.8034 90.8116 51.1889 139.5 51.1889C188.197 51.1889 227.811 90.8034 227.811 139.5C227.811 188.197 188.188 227.811 139.5 227.811Z" fill="white"/>
</g>
<rect x="91.2544" y="102.041" width="16" height="119" rx="8" transform="rotate(-46.1061 91.2544 102.041)" fill="#FF7152"/>
<rect width="16" height="119" rx="8" transform="matrix(-0.693325 -0.720625 -0.720625 0.693325 188.848 102.53)" fill="#FF7152"/>
<defs>
<filter id="filter0_d" x="0" y="0" width="279" height="279" filterUnits="userSpaceOnUse" color-interpolation-filters="sRGB">
<feFlood flood-opacity="0" result="BackgroundImageFix"/>
<feColorMatrix in="SourceAlpha" type="matrix" values="0 0 0 0 0 0 0 0 0 0 0 0 0 0 0 0 0 0 127 0"/>
<feOffset/>
<feGaussianBlur stdDeviation="17.5"/>
<feColorMatrix type="matrix" values="0 0 0 0 1 0 0 0 0 1 0 0 0 0 1 0 0 0 0.25 0"/>
<feBlend mode="normal" in2="BackgroundImageFix" result="effect1_dropShadow"/>
<feBlend mode="normal" in="SourceGraphic" in2="effect1_dropShadow" result="shape"/>
</filter>
</defs>
</svg>
