<svg width="44" height="44" viewBox="0 0 44 44" fill="none" xmlns="http://www.w3.org/2000/svg">
<path d="M22 22V2H17.5L12.5 5.88889L8 13.1111V22H22Z" fill="#FBFF44"/>
<path d="M22.0001 0C13.4575 0 6.50781 7.05891 6.50781 15.7351V28.2654C6.50781 36.9415 13.4575 44 22.0001 44C30.5422 44 37.4924 36.9629 37.4924 28.3135V15.7351C37.4924 7.05891 30.5422 0 22.0001 0ZM34.5784 28.3135C34.5784 35.3564 28.9361 41.0861 22.0001 41.0861C15.0645 41.0861 9.42178 35.3346 9.42178 28.2649V15.7351C9.42178 8.66542 15.0645 2.91388 22.0001 2.91388C28.9362 2.91388 34.5784 8.66542 34.5784 15.7351V28.3135Z" fill="white"/>
<path d="M21.9999 12.0441C21.1952 12.0441 20.543 12.6964 20.543 13.5011V18.6005C20.543 19.4052 21.1952 20.0575 21.9999 20.0575C22.8047 20.0575 23.4569 19.4052 23.4569 18.6005V13.5011C23.4569 12.6964 22.8047 12.0441 21.9999 12.0441Z" fill="white"/>
</svg>
